# xmcd
#
# Track frame offsets: 
#        150
#        11842
#        30911
#        49497
#        60165
#        74360
#        96544
#        111880
#        128101
#        178127
#
# Disc length: 2723 seconds
#
# Revision: 3
# Processed by: cddbd v1.5.2PL0 Copyright (c) Steve Scherf et al.
# Submitted via: ExactAudioCopy v1.0b3
#
DISCID=890aa10a
DTITLE=Popa Chubby - I'm Feelin' Lucky [CD Bonus "25 Years!")
DYEAR=2014
DGENRE=Blues Rock
TTITLE0=Popa Chubby and Bloodclot - Elemental Time
TTITLE1=Popa Chubby and Bloodclot - Smoke Break
TTITLE2=Popa Chubby and Noxcuse - Video Versus
TTITLE3=My Relation
TTITLE4=Popa Chubby and Bloodclot - Drop The Beat
TTITLE5=I Can't Fix You
TTITLE6=Popa Chubby (From City Opus with Joe Lobelle) - Mike The Cop
TTITLE7=I'm Giving Up
TTITLE8=Steef Jam
TTITLE9=Popa Chubby and Street Docs - Popa Chubby Is An Old Ass Man
EXTD=LM
EXTT0=LM
EXTT1=LM
EXTT2=LM
EXTT3=LM
EXTT4=LM
EXTT5=LM
EXTT6=LM
EXTT7=LM
EXTT8=LM
EXTT9=LM
PLAYORDER=
